<?xml version="1.0" encoding="UTF-8"?>
<svg viewBox="0 0 199.64026 156.23837" xmlns="http://www.w3.org/2000/svg">
 <defs>
  <filter id="e">
   <feGaussianBlur stdDeviation="1.02068"/>
  </filter>
  <linearGradient id="a" x1="351.09" x2="351.34" y1="893.12" y2="841.68" gradientUnits="userSpaceOnUse">
   <stop offset="0"/>
   <stop stop-opacity="0" offset="1"/>
  </linearGradient>
  <linearGradient id="d" x1="-819.27" x2="-822.53" y1="1202.5" y2="1204.3" gradientTransform="matrix(1.0538 0 .73694 .71478 -1.0506 -.01406)" gradientUnits="userSpaceOnUse">
   <stop stop-color="#b3b3b3" offset="0"/>
   <stop stop-color="#b3b3b3" stop-opacity="0" offset="1"/>
  </linearGradient>
  <linearGradient id="c" x2="0" y1="464.45" y2="365.36" gradientTransform="matrix(.017059 -.017059 .017059 .017059 11.064 855.46)" gradientUnits="userSpaceOnUse">
   <stop stop-color="#666" offset="0"/>
   <stop stop-color="#666" stop-opacity=".53676" offset="1"/>
  </linearGradient>
  <linearGradient id="b" x1="301.43" x2="422.86" gradientTransform="matrix(.017059 -.017059 .017059 .017059 11.064 855.46)" gradientUnits="userSpaceOnUse">
   <stop stop-color="#562200" offset="0"/>
   <stop stop-color="#b44700" offset="1"/>
  </linearGradient>
 </defs>
 <g transform="matrix(12.512 0 0 12.512 -235.97 -10673)" fill-rule="evenodd">
  <path d="m18.91017,859.35749 1.91604,1.91604c.34563.0463.68762.14578 1.03369.1658 .7848-.71199 1.52667-1.49469 2.27954-2.24756l6.31726,6.31726c.45408.08414.84895-.22949 1.19159-.48216 .60043-.48094 1.16553-1.06801 1.43092-1.80087 .06381-.17832.04231-.40954-.13613-.51363l-6.16212-6.16212 2.84623-2.84623c-.24322-.21362-.44093-.48504-.70689-.66851l-5.01297,1.09573-5.01326,5.01326c-.03398.06384-.06229.12872.0161.21299z"/>
  <path d="m24.23 859.08 2.437-2.437 6.2973 6.2973c0.09219 0.76161-1.7697 2.5914-2.437 2.437l-6.2973-6.2973z" fill="url(#b)"/>
  <path d="m19.751 859.24 4.9716-4.9716 4.1917-1.0723 0.5069 0.5069-7.6036 7.6036-2.0666-2.0666z" fill="url(#c)"/>
  <path transform="matrix(.0139 -.014211 .0139 .014211 7.9602 850.3)" d="m421.43 724.51a70 12.143 0 1 1 -140 0 70 12.143 0 1 1 140 0z" fill="#803300"/>
  <path transform="matrix(.017059 -.017059 .017059 .017059 11.064 855.46)" d="m280 820.06v42.875c15.036 24.085 123.22 25.025 142.84 0v-42.875c-27.201 24.689-126.89 19.288-142.84 0z" fill="url(#a)" filter="url(#e)"/>
  <path d="m18.94461,859.30989c-.04076-.05969-.01428-.08096.01654-.09975l.78744.03063 2.07186,2.07005-.9245-.1232-1.95134-1.87773z" fill="url(#d)"/>
  <path d="m28.875 853.34-4.154 1.0604c-1.5622 1.6367-3.1944 3.2044-4.7835 4.8146 0.8339-0.32742 1.2342-1.2038 1.9361-1.7095 0.99191-0.98037 1.987-1.9576 2.9701-2.9468 1.2809-0.46513 2.6283-0.7138 3.9215-1.1346 0.04154-0.02165 0.07536-0.05289 0.10976-0.08414z" fill="#fff" fill-opacity=".76271"/>
  <g transform="translate(-18.305 .6784)">
   <path transform="translate(18.862 851.58)" d="m31.375,1.03125c-.42649-.05674-.88352.03841-1.25.25-.68094.39313-.99704,1.16504-.96875,2.03125 .00036.01094-.00047.02029 0,.03125-.01909.24465.04489.47922.0625.65625s.01796.30015-.1875.4375l-6.40625,6.21875h-.03125c-.32467.32467-.34068.83998-.09375,1.21875 .00166.01464-.00876.01076 0,.03125 .04982.11655.1196.2446.21875.34375h.03125l.65625.625c.38723.38722.99791.40833 1.375.03125 .00104-.01039.00104-.02086 0-.03125l5.90625-6.1875c.11691-.14885.19599-.20272.25-.21875s.09635-.00926.1875.03125c.1823.08102.47344.29762.9375.375 .40895.04135.84961-.00563 1.21875-.21875 .53771-.31045.84063-.85727.9375-1.5 .00842-.05589.00476-.06557 0-.03125 .04349-.2043.04801-.39642.03125-.625 .00104-.01039.00104-.02086 0-.03125-.00556-.02293-.01625-.04429-.03125-.0625l-.03125-.03125h-.03125l-.375-.1875-.03125-.03125h-.03125-.03125-.03125l-1.53125.625-1-1.78125 1.5625-1.03125 .03125-.03125c.015-.01821.02569-.03957.03125-.0625 .00104-.01039.00104-.02086 0-.03125s.00104-.02086 0-.03125 .00104-.02086 0-.03125l-.03125-.03125-.09375-.15625-.03125-.03125c-.38452-.27509-.79196-.47447-1.21875-.53125z"/>
   <path d="m51.36592,853.2608c-.73921-.52884-1.6056-.6675-2.27748-.27958-.62967.36353-.943,1.10556-.90696,1.94189-.04674.41377.29116.89747-.20543,1.22944l-6.40845,6.20685c-.31631.31631-.30326.83927.02947,1.17199l.65514.65514c.33272.33272.85568.34577 1.17199.02947l5.91158-6.20331c.50819-.64699.66082-.00436 1.51887.13872 .3899.03942.76878-.01287 1.10142-.20492 .65305-.37704 1.06576-1.00106 1.00166-1.87537l-.36614-.19144-1.64949.66735-1.14247-2.01417 1.66648-1.1125-.10019-.15805c-.00026-.00019.00026-.00132 0-.00151z" fill="#4d4d4d"/>
   <path d="m51.46611,853.42036c-.73921-.52884-1.6056-.6675-2.27748-.27958-.62967.36353-.943,1.10556-.90696,1.94189-.04674.41377.29116.89747-.20543,1.22944l-6.40845,6.20685c-.31631.31631-.30326.83927.02947,1.17199l.65514.65514c.33272.33272.85568.34577 1.17199.02947l5.91158-6.20331c.50819-.64699.66082-.00436 1.51887.13872 .3899.03942.76878-.01287 1.10142-.20492 .65305-.37704.96557-1.16062.90147-2.03493l-1.86529.91827-1.3828-2.39646 1.75647-1.17106c-.00026-.00019.00026-.00132 0-.00151z" fill="#ccc"/>
   <path d="m43.50485,861.83711c-.28836.2837-.53748.56784-.73496.82974-.41278.54745-.41078.75956-.25892.90552 .14589.14021.38714.20328.91519-.17709 .28457-.205.59751-.46961.90956-.77662l4.44571-4.38248c.15201-.14956.27475-.28915.40341-.43502 .05429-.14914-.00416-.19575-.14227-.14227l-4.47037,4.40714c-.89109.87668-1.73176,1.46856-1.87163,1.33414s.47468-.96331 1.36577-1.84l4.48619-4.39133c.08744-.13306-.01546-.20545-.12647-.12647-.15305.13113-.30122.27217-.45969.42807l-4.46152,4.36667z" fill="#808080"/>
   <path transform="matrix(.20146 0 0 .20146 41.791 685.58)" d="m41.375,830.9375c-.65874-.04166-1.30756.01302-1.9375.125-.87783.15605-1.65902.47-2.46875.9375-2.98894,1.7257-4.58058,5.20469-4.40625,9.25 .00178.0208.00178.0417 0,.0625-.10296.9114.22045,2.0419.3125,3.1875s-.13315,2.3884-1.46875,3.28125v-.03125l-31.8125,30.8125c-.68939.68941-.95771,1.60398-.9375,2.53125l32.875-31.71875c2.33187-2.25022 1.98444-5.12669 1.90625-7.09375-.16944-4.32578.63768-7.54339 2.78125-9.21875 2.11269-1.65122 5.39213-1.63782 9.96875.21875l.65625-.40625c-1.78828-1.09567-3.66503-1.82343-5.46875-1.9375z" fill="#fff" opacity=".8"/>
  </g>
 </g>
</svg>
